<svg id="Layer_1" data-name="Layer 1" xmlns="http://www.w3.org/2000/svg" viewBox="0 0 210.95 258.92"><defs><style>.cls-1{fill:#06080f;}</style></defs><path class="cls-1" d="M-234,41c-1.71-2.08-3.43-.26-5,.18-8.32,2.32-16.58,4.83-24.86,7.29-.95.28-1.87.8-3-.26,2.59-5.65,7.6-9.76,10.15-15.82q-8.81,5.73-17.61,11.44c-1.51,1-3.14,2.81-4.86,1.76-2-1.23-.34-3.34,0-5,1.19-5.15,2.61-10.25,3.87-15.38-4.78,5.53-9.53,11.09-14.35,16.59-1,1.09-1.78,2.83-3.37,2.65s-1.75-2.18-2.24-3.54c-2.09-5.78-4.15-11.57-4.34-17.88-1.14,4.76-2.07,9.58-3.46,14.26-2.56,8.54-3.19,8.65-9.24,1.87-3.73-4.18-7.27-8.52-11.75-13.79.76,6.74,2.82,11.66,4.27,16.89.48,1.7,1.18,2.36.05,3.24-1.36,1.07-2.39-.36-3.51-1-7.08-3.92-13.54-8.91-21.45-11.91,3.77,5.49,9.25,9.7,13.1,17-18.22-5.69-34.88-11.91-51.92-18.66.21,6.86,2.9,12.83,2.54,19.57-3.45-5.67-6.93-11.31-10.33-17-3.92-6.56-7.77-13.18-11.66-19.76-.74-1.26-2.27-2.48-1.57-4s2.7-.82,4.09-.82q37.25-.08,74.48,0,63.24,0,126.47,0c1.61,0,3.82-.82,4.7.63,1.09,1.81-1,3.25-1.89,4.75-6.62,11-11.32,18.74-18,29.68-.67,1.11-.75,1.24-4.55,6,1.22-5.78,2.44-11.55,3.8-18Z" transform="translate(405.34 36.73)"/><path class="cls-1" d="M-301.91,77c0,28.65,0,57.29.15,85.93,0,4.19-1.25,4.57-4.52,2.56-16.55-10.23-30.91-23-43.79-37.5-4.63-5.21-8.71-10.93-13.5-16-5.32-5.62-6.06-12.65-7.24-19.64q-4.62-27.22-9.2-54.45a21.48,21.48,0,0,1,0-2.77c2,2.19,4.82,2.14,6,4.57-.08.75.33,1.14.91,1.56A255.12,255.12,0,0,0-341,61.14C-328.42,67.64-315.16,72.3-301.91,77Z" transform="translate(405.34 36.73)"/><path class="cls-1" d="M-401.11,82.82c3.17.78,3,3,3.58,4.53,17.81,44.57,46.68,79.88,87.32,105.68,8.1,5.14,14.46,5.6,22.88.32,21.16-13.26,40.88-28.12,58.24-46.1,1.1-1.14,1.83-2.8,3.61-3.13,1.07.66.72,1.45.28,2.15-18.29,28.62-40,54.06-68,73.78-4,2.82-7,2.84-11.07.16-48.07-31.47-79.56-75-95-130.22C-399.85,87.81-400.38,85.61-401.11,82.82Z" transform="translate(405.34 36.73)"/><path class="cls-1" d="M-325.26-36.73A410.72,410.72,0,0,1-210.12-18.14c1.59.5,3.16,1,4.73,1.61.8.3,1.64.8,1.25,1.79s-1.2.45-2,.29c-22.61-4.58-45.54-6-68.53-6.69-42.45-1.32-84.58,1.61-126.24,10.14-3.62.74-4.44-.06-4.42-3.69.07-13.43-.06-13.44,13.1-16.11C-371.43-35-350.36-36.64-325.26-36.73Z" transform="translate(405.34 36.73)"/><path class="cls-1" d="M-301.91,77c-13.25-4.72-26.51-9.38-39.06-15.88a255.12,255.12,0,0,1-32.11-19.85c-.58-.42-3.56-3.12-3.48-3.86,4.1,1.83,7.71,3.2,10.18,4.34C-347,50.7-327.68,59.65-307,65.41a27.32,27.32,0,0,0,16.16-.2c19.74-6.3,38.44-15,56.93-24.21l18.65-8.94c-1.36,6.41-2.58,12.18-3.8,18-2.33,5.54-3.19,11.5-4.92,17.21-.41,1.38,0,4.12-2.32,3.44-1.48-.43-.75-2.91-.4-4.45,1.89-8.12,2.09-16.41,3-24.61-1.91-.46-2.76.8-3.79,1.5-19.3,13.18-39.64,24.31-61.89,31.74a10.84,10.84,0,0,0-1.7.93L-296,77Z" transform="translate(405.34 36.73)"/><path class="cls-1" d="M-296,77l4.91-1.26q.09,43.41.17,86.83c0,.5,0,1,0,1.49a3.51,3.51,0,0,1-3.68,3.38c-2.23-.08-1.29-2.33-1.3-3.6q-.09-31.44,0-62.88C-296,93-296,85-296,77Z" transform="translate(405.34 36.73)"/></svg>