<svg id="Layer_1" data-name="Layer 1" xmlns="http://www.w3.org/2000/svg" viewBox="0 0 274.82 200.57"><defs><style>.cls-1{fill:#06080f;}.cls-2{fill:#f5f5f5;}.cls-3{isolation:isolate;}</style></defs><polygon class="cls-1" points="95.16 108.99 25.3 167.11 0 155.3 95.16 108.99"/><polygon class="cls-2" points="95.16 108.99 38.23 173.32 35.37 196.08 25.3 167.11 95.16 108.99"/><polygon class="cls-1" points="95.16 108.99 76.77 190.87 38.23 173.32 95.16 108.99"/><polygon class="cls-1" points="38.24 173.32 48.3 177.9 35.37 196.08 38.24 173.32"/><path class="cls-1" d="M-385.61,71c0-28.14,16.46-47.71,44.53-47.71,25.29,0,35.83,15.22,38.07,27.63l-16.86,2.81c-1.45-8.06-7.12-17.4-21.48-17.4-17.12,0-26.87,13.82-26.87,34.54,0,20,9,34.28,27,34.28,19,0,23.85-15.09,23.85-23.41V80h-25.3V67.38H-302v48.86h-12.12l-1.45-13.94c-4.34,9.72-14.88,16.11-28.85,16.11C-370.2,118.41-385.61,99-385.61,71Z" transform="translate(400 -23.25)"/><path class="cls-1" d="M-289.18,70.7c0-28.27,15.95-47.45,44-47.45,23.32,0,36.62,12.92,39.13,32.23l-17.39,2.43C-225,45-232.79,36.8-245.7,36.8c-16.47,0-25.95,13.44-25.95,33.77,0,19.83,9.22,34,26.35,34,12,0,20.15-7.8,22.52-20.59l16.87,3.32c-4,18.17-16.73,31.08-39.53,31.08C-274.82,118.41-289.18,98.2-289.18,70.7Z" transform="translate(400 -23.25)"/><g class="cls-3"><path class="cls-1" d="M-215.55,208.22v13.35h-66.82V127.72h65.82v13.35h-47.4v25.77h45v13.22h-45v28.16Z" transform="translate(400 -23.25)"/></g><g class="cls-3"><path class="cls-1" d="M-206.7,197.51l15.7-6.34c3.43,10.57,11.71,19,27.41,19,10.42,0,20.13-3.83,20.13-13.61,0-9.12-6-12.3-17.13-14.41l-14.13-2.78c-16-3-26.56-11-26.56-27,0-16.26,14.28-27,37.12-27,19.27,0,34.55,7.27,39,22.87l-14.71,7.14c-3.28-10.84-11.71-17.06-25.12-17.06-11,0-18.42,4.76-18.42,12.69,0,7.67,4.57,11.64,15.7,13.88L-153,167.9c16.7,3.31,27.84,10.44,27.84,27.1,0,16.13-13.14,28.82-39,28.82C-188.14,223.82-202.56,212.85-206.7,197.51Z" transform="translate(400 -23.25)"/></g></svg>