<svg id="Layer_1" data-name="Layer 1" xmlns="http://www.w3.org/2000/svg" viewBox="0 0 80.86 74.16"><defs><style>.cls-1{fill:#06080f;}</style></defs><path class="cls-1" d="M-217.76,118.34a12.23,12.23,0,0,1-3.31,8.46c-1.07,1.12-1.15,1.75-.06,3,3.93,4.51,4.41,9.65,1.77,14.89s-7,7.67-12.82,7.12c-2-.19-2.18.7-2.52,2.15-2.63,10.95-13.2,14.8-22,7.94-1.35-1-1.9-.75-3.05.15-8.48,6.65-19.54,2.6-21.83-8-.39-1.85-.73-2.57-3-2.37-5.49.48-9.69-2-12.22-6.87s-2.49-9.65.82-14c1.45-1.92,2-2.89.17-5.1-3.51-4.21-3.48-9.19-1-14s6.65-7.42,12.14-7.06c2.33.15,2.85-.55,3.29-2.62,2.2-10.24,13.52-14.21,21.76-7.61,1.42,1.14,2,1,3.28-.07a13.24,13.24,0,0,1,21.57,7.55c.51,2.37,1.23,3,3.75,2.86C-223.65,104.43-217.69,110.75-217.76,118.34ZM-242,125.2v.06c3.6,0,7.2,0,10.81,0a7,7,0,0,0,6.44-3.72,6.85,6.85,0,0,0-.55-7.7,7,7,0,0,0-7.23-2.81,6.41,6.41,0,0,0-5.4,5c-.66,2.61-1.25,5.08-4.18,6.06a5.71,5.71,0,0,1-7.11-3.14c-1.4-3.19-.05-5.82,4-7.83,3.86-1.91,5.47-5.13,4.38-8.73a7.15,7.15,0,0,0-7.64-5.17,7.35,7.35,0,0,0-6.55,7.39c-.15,6.06,0,12.13-.09,18.2,0,2.09.84,2.48,2.65,2.42C-249,125.13-245.48,125.2-242,125.2Zm.25,6.12h-10.84c-1.28,0-2.49-.12-2.48,1.81.06,6.58-.15,13.16.09,19.73.12,3.52,3.15,6.13,6.64,6.48a7.13,7.13,0,0,0,7.4-5,7.1,7.1,0,0,0-3.59-8.51,22.45,22.45,0,0,1-3-1.53,5.16,5.16,0,0,1-2-5.92,5.49,5.49,0,0,1,4.79-4.11c3.27-.43,5.39,1.43,6.56,5.63s4.2,6.43,8.2,5.74a7.16,7.16,0,0,0,6.09-7.34c-.19-3.92-3.08-6.7-7.41-6.88C-234.78,131.21-238.27,131.32-241.75,131.32Zm-32.5-.07c-3.36,0-6.72,0-10.07,0-4.7.07-7.67,2.52-8,6.56a7.22,7.22,0,0,0,6.11,7.66c4.15.64,7-1.45,8.25-6.15.42-1.58.8-3.12,2.29-4.09a5.7,5.7,0,0,1,6-.55,5.36,5.36,0,0,1,3.21,5.06c0,2.77-1.73,4.42-4.21,5.56-4.25,1.95-5.83,5.09-4.66,8.84a7.11,7.11,0,0,0,7.69,5.09c3.89-.54,6.4-3.48,6.46-7.82.1-5.95,0-11.9.1-17.84,0-1.76-.51-2.41-2.31-2.36C-267,131.33-270.65,131.25-274.25,131.25Zm-.21-6.1v0h10.84c1.28,0,2.5.14,2.48-1.8-.07-6.58.11-13.17-.11-19.74a7.1,7.1,0,0,0-6.61-6.52,7.18,7.18,0,0,0-7.42,5,7.13,7.13,0,0,0,3.59,8.53c.87.48,1.86.75,2.68,1.3a5.48,5.48,0,0,1,1.3,8.14,5.8,5.8,0,0,1-8.59.52c-1.14-1.12-1.35-2.6-1.75-4-1.15-4.15-4.16-6.38-7.82-5.84a7.22,7.22,0,0,0-6.44,7.44c.17,3.92,3.08,6.72,7.39,6.87C-281.44,125.25-277.94,125.15-274.46,125.15Z" transform="translate(298.57 -91.17)"/></svg>